<svg xmlns="http://www.w3.org/2000/svg" viewBox="0 0 236.53 233.53"><defs><style>.cls-1{fill:#a3b1b2;}.cls-1,.cls-2{opacity:0.66;}.cls-2{fill:#707b7d;}.cls-3{opacity:0.16;}.cls-4{fill:#292832;}.cls-5{fill:none;stroke:#292832;stroke-miterlimit:10;stroke-width:4px;}</style></defs><title>icon 3 (no text)</title><g id="Layer_2" data-name="Layer 2"><g id="artboard_2" data-name="artboard 2"><circle class="cls-1" cx="120.76" cy="117.76" r="115.76"/><circle class="cls-2" cx="115.76" cy="115.76" r="115.76"/><g class="cls-3"><path class="cls-4" d="M53.49,73.68c4.17-17.91,18.6-27.21,41.82-27.21,22.38,0,37,10.11,37,24.9,0,10-6.09,17.29-17.66,20.52l-.05.32a21.07,21.07,0,0,1,14,20.09c0,18.58-17,31-44.07,31-28.28,0-39.74-13.16-40.48-30.4H71.87c.91,6,4.48,10.73,13.08,10.73,8.25,0,13.25-4.24,13.25-11.48,0-6-3.24-9.44-12.52-9.44H77.59l4.17-20h7c9.52,0,14.48-2.36,14.48-9.22,0-5-3.2-7.91-9.8-7.91-8.63,0-11.26,4.38-12.77,8.07Z"/></g><path class="cls-5" d="M141.85,123.52a14.81,14.81,0,0,0-4.74-4.07c-7.94-4.25-13.64,0-19.26,0s-11.32-4.25-19.26,0-11.51,16.28-7.82,29.45c3.43,12.28,12.44,19.46,19.37,19.46,2.88,0,5.35-2,7.71-2s4.83,2,7.7,2c6.94,0,16-7.18,19.38-19.46a33.52,33.52,0,0,0,.09-19.26m-40.76-23.75c4.72,6.19,13.48,7.45,13.48,7.45s1.09-8.78-3.63-15-13.48-7.45-13.48-7.45-1.1,8.78,3.63,15Zm13.59,13.56c0-5.49,3.52-13,10.19-18.35"/><line class="cls-5" x1="148.42" y1="117.41" x2="130.08" y2="135.75"/><path class="cls-5" d="M162.69,93l-2,2v2l-12.23,12.22a6.2,6.2,0,0,0,0,8.44,5.86,5.86,0,0,0,8.16-.28l12.23-12.23h2l2-2L162.69,93Z"/><path class="cls-5" d="M156.57,101.1l4.08,4.08m-10.19,2,4.08,4.07m18.34-28.53L183.07,93"/><line class="cls-5" x1="168.8" y1="97.03" x2="176.96" y2="88.87"/><path class="cls-5" d="M105.62,125.68a17.09,17.09,0,0,0-6.07,12.11"/><path class="cls-5" d="M100.72,148c-.34-1.24-.6-2.42-.8-3.55"/></g></g></svg>