<svg xmlns="http://www.w3.org/2000/svg" viewBox="0 0 236.53 233.53"><defs><style>.cls-1{fill:#a3b1b2;}.cls-1,.cls-2{opacity:0.66;}.cls-2{fill:#707b7d;}.cls-3{opacity:0.16;}.cls-4{fill:#292832;}.cls-5{fill:none;stroke:#292832;stroke-miterlimit:10;stroke-width:4px;}</style></defs><title>icon 1 (no text)</title><g id="Layer_2" data-name="Layer 2"><g id="artboard_2" data-name="artboard 2"><circle class="cls-1" cx="120.76" cy="117.76" r="115.76"/><circle class="cls-2" cx="115.76" cy="115.76" r="115.76"/><g class="cls-3"><path class="cls-4" d="M49.57,141.3,63.48,76a59,59,0,0,1-15.6,1l3.95-18.08C62.26,57.78,71,54,77.6,48.38h21L78.79,141.3Z"/></g><path class="cls-5" d="M79.17,112a35.87,35.87,0,0,1,71.74,0h0a35.87,35.87,0,1,1-71.74,0"/><path class="cls-5" d="M90.34,100.2a26.38,26.38,0,0,1,13-13"/><path class="cls-5" d="M88,111.17a26.54,26.54,0,0,1,.36-4.39"/><path class="cls-5" d="M101.75,127.47c-6-5.81-3.8-15.42-.1-19.37,9.28-9.88,20.51-8.35,30.69-14.49,4.35,9.14,3.36,21.43-3.84,29-5.63,5.89-16.38,7-20.43,6.12"/><path class="cls-5" d="M98.86,134.18c4-11.37,13.74-20.67,24.9-28.49"/><line class="cls-5" x1="140.92" y1="139.85" x2="164.83" y2="163.76"/></g></g></svg>