<svg xmlns="http://www.w3.org/2000/svg" viewBox="0 0 236.53 233.53"><defs><style>.cls-1{fill:#a3b1b2;}.cls-1,.cls-2{opacity:0.66;}.cls-2{fill:#707b7d;}.cls-3{opacity:0.16;}.cls-4{fill:#292832;}.cls-5{fill:none;stroke:#292832;stroke-miterlimit:10;stroke-width:4px;}</style></defs><title>icon 4 (no text)</title><g id="Layer_2" data-name="Layer 2"><g id="artboard_2" data-name="artboard 2"><circle class="cls-1" cx="120.76" cy="117.76" r="115.76"/><circle class="cls-2" cx="115.76" cy="115.76" r="115.76"/><g class="cls-3"><path class="cls-4" d="M86.74,141.3l4.06-19.57H43.43l4.5-21L98.2,48.38h35.58L122.6,100.45h13.6l-6.41,21.28H118.13l-4.06,19.57ZM97.36,90.84c1.11-5.28,3.67-15.47,5-20.09C97.24,77,88.54,86.89,75.88,100.45H95.36Z"/></g><path class="cls-5" d="M140,80.11c3.72,5.33,6.43,16,4.63,29.91-2.48,19.26-12.82,29.12-25.26,36-11.74,6.47-17.77,14.26-19.94,24.13a38.49,38.49,0,0,0-.64,3.89"/><path class="cls-5" d="M90,174a65.29,65.29,0,0,1,.52-7c2.48-19.25,13.06-26.28,25.26-33.95s17.77-16.28,19.94-26.15a45.1,45.1,0,0,0,1-9.82,65.35,65.35,0,0,0-2.54-17.7"/><path class="cls-5" d="M117.63,147c10.59,6.27,16.11,13.76,18.17,23.12a38.47,38.47,0,0,1,.65,3.89"/><path class="cls-5" d="M95.23,80.11c-3.72,5.33-6.43,16-4.63,29.91s7.7,22.94,15.54,29.46"/><path class="cls-5" d="M117.51,131.78c-10.89-7.38-15.94-15.55-18-24.88a44.46,44.46,0,0,1-1-9.82,65.35,65.35,0,0,1,2.54-17.7"/><path class="cls-5" d="M145.23,174a67.85,67.85,0,0,0-.51-7c-1.76-13.64-7.59-21.14-15.17-27.09"/><line class="cls-5" x1="129.4" y1="93.88" x2="135.7" y2="93.88"/><line class="cls-5" x1="99.48" y1="93.88" x2="123.1" y2="93.88"/><line class="cls-5" x1="121.53" y1="105.01" x2="135.7" y2="105.01"/><line class="cls-5" x1="99.48" y1="105.01" x2="115.23" y2="105.01"/><line class="cls-5" x1="115.23" y1="116.14" x2="130.98" y2="116.14"/><line class="cls-5" x1="104.2" y1="116.14" x2="108.93" y2="116.14"/><line class="cls-5" x1="123.1" y1="171.79" x2="135.7" y2="171.79"/><line class="cls-5" x1="99.48" y1="171.79" x2="116.8" y2="171.79"/><line class="cls-5" x1="116.8" y1="160.66" x2="130.98" y2="160.66"/><line class="cls-5" x1="104.2" y1="160.66" x2="110.5" y2="160.66"/></g></g></svg>