<svg xmlns="http://www.w3.org/2000/svg" viewBox="0 0 236.53 233.53"><defs><style>.cls-1{fill:#a3b1b2;}.cls-1,.cls-2{opacity:0.66;}.cls-2{fill:#707b7d;}.cls-3{opacity:0.16;}.cls-4{fill:#292832;}.cls-5{fill:none;stroke:#292832;stroke-miterlimit:10;stroke-width:4px;}</style></defs><title>icon 2 (no text)</title><g id="Layer_2" data-name="Layer 2"><g id="artboard_2" data-name="artboard 2"><circle class="cls-1" cx="120.76" cy="117.76" r="115.76"/><circle class="cls-2" cx="115.76" cy="115.76" r="115.76"/><g class="cls-3"><path class="cls-4" d="M39.6,141.3l.52-2.29c4.32-19.3,11.55-31.33,38.29-45.29C95.92,84.55,102,81.92,102,75.05c0-5.94-4.12-8.73-10-8.73-8.5,0-12.1,5.32-14.08,13H50c4-20.63,18.34-32.93,44.53-32.93,20.59,0,37.54,9.68,37.54,29,0,13.82-7.43,20.24-27.88,30.26-14.71,7.2-20.31,10.76-23.19,14.65h45.73l-7.56,21Z"/></g><line class="cls-5" x1="108.19" y1="105.6" x2="126.42" y2="123.84"/><path class="cls-5" d="M110.52,143.15c2.45,7.12,2.25,13.88-3.88,20L104,165.85"/><path class="cls-5" d="M105.91,117l13.68,13.68m-39.82,4.54,22.57,22.56M89.44,132l16.12,16.12"/><path class="cls-5" d="M145.74,107.93c7.13,2.45,13.88,2.24,20-3.88l2.68-2.69M124,97.48c-7.12-2.45-13.87-2.24-20,3.88s-6.33,12.89-3.88,20m19.51,17.06c-4.61-1-9.39-3.36-14.29-6.18-11.13-6.41-21.72-10.52-30.89-1.34l-2.69,2.68m64.48-64.48-2.68,2.69c-9.18,9.17-5.07,19.76,1.34,30.9a59.62,59.62,0,0,1,5.58,12"/><line class="cls-5" x1="119.59" y1="103.32" x2="133.26" y2="117"/><line class="cls-5" x1="137.8" y1="77.18" x2="160.37" y2="99.75"/><line class="cls-5" x1="134.58" y1="86.85" x2="150.7" y2="102.97"/><path class="cls-5" d="M167.46,142.08a20.52,20.52,0,1,1-20.52-20.52,20.51,20.51,0,0,1,20.52,20.52Z"/><line class="cls-5" x1="160.62" y1="158.03" x2="174.3" y2="171.71"/></g></g></svg>