<svg xmlns="http://www.w3.org/2000/svg" viewBox="0 0 287 180.28"><defs><style>.cls-1{fill:#a3b1b2;}.cls-1,.cls-2{opacity:0.66;}.cls-2{fill:#707b7d;}.cls-3{fill:none;stroke:#292832;stroke-miterlimit:10;stroke-width:4px;}.cls-4{opacity:0.16;}.cls-5{fill:#292832;}</style></defs><title>run all (no text)</title><g id="Layer_2" data-name="Layer 2"><g id="artboard_2" data-name="artboard 2"><rect class="cls-1" x="5" y="2" width="282" height="178.28" rx="14.1" ry="14.1"/><rect class="cls-2" width="282" height="178.28" rx="14.1" ry="14.1"/><path class="cls-3" d="M140.55,123.46c20.85-3.1,27.17-10.61,27.17-25.36-6.72,1-13.19,2.6-18.06,5-5.59,2.78-9.11,7.57-9.11,13.2v7.14Zm0,0c-20.85-3.1-27.17-10.61-27.17-25.36,6.72,1,13.18,2.6,18.05,5,5.6,2.78,9.12,7.57,9.12,13.2v7.14Z"/><path class="cls-3" d="M129.68,81.8h21.73M133.3,89h14.49"/><path class="cls-3" d="M149.6,62c5.38-2.63,9.06-6.53,9.06-13.42v-1.2m-27.17,21c-5.38,2.63-9.05,6.54-9.05,13.42a13.18,13.18,0,0,0,5,10.87,21.12,21.12,0,0,0,4.09,2.55"/><path class="cls-3" d="M133.3,74.55h14.49M129.68,49.2h21.73M133.3,56.44h14.49"/><path class="cls-3" d="M122.44,47.39v1.2c0,10.31,8.25,13.95,18.11,16.61s18.11,6.29,18.11,16.6c0,6.22-3,10-7.56,12.62"/><line class="cls-3" x1="140.55" y1="123.46" x2="140.55" y2="128.89"/><g class="cls-4"><path class="cls-5" d="M43.28,129,57.19,63.71a59,59,0,0,1-15.6,1l3.95-18.07C56,45.52,64.66,41.76,71.3,36.12h21L72.5,129Z"/><path class="cls-5" d="M148.09,81.93l-4.8,22.54H96.41l4.8-22.54Z"/><path class="cls-5" d="M199.07,129l4.06-19.56H155.75l4.51-21,50.27-52.34h35.58L234.93,88.19h13.6l-6.41,21.29H230.45L226.39,129Zm10.62-50.46c1.11-5.28,3.67-15.46,5-20.09-5.09,6.27-13.78,16.14-26.45,29.7h19.49Z"/></g></g></g></svg>