<svg xmlns="http://www.w3.org/2000/svg" viewBox="0 0 194 194"><defs><style>.cls-1{fill:#284fdd;}.cls-2{fill:#fff;}</style></defs><title>Sequencing Batch Reactor</title><g id="Layer_2" data-name="Layer 2"><g id="Layer_2-2" data-name="Layer 2"><circle class="cls-1" cx="97" cy="97" r="97"/></g><g id="Layer_1-2" data-name="Layer 1"><rect class="cls-2" x="142.09" y="71.55" width="1.09" height="56.74" transform="translate(242.55 -42.71) rotate(90)"/><path class="cls-2" d="M170.17,98a.14.14,0,0,0-.19.13v3.65a.13.13,0,0,0,.19.12L174,100a.13.13,0,0,0,0-.24Z"/><path class="cls-2" d="M152.22,67.57h-6a1.56,1.56,0,0,0-1.56,1.57v14.4H51.43V69.14a1.57,1.57,0,0,0-1.57-1.57h-6a1.56,1.56,0,0,0-1.56,1.57v55.72a1.56,1.56,0,0,0,1.56,1.57H152.22a1.56,1.56,0,0,0,1.56-1.57V69.14A1.56,1.56,0,0,0,152.22,67.57Zm-7.54,48.61a1.6,1.6,0,0,1-1.57,1.62H53a1.59,1.59,0,0,1-1.56-1.62V84.52h93.25Z"/><rect class="cls-2" x="114.02" y="83.42" width="1.09" height="17.02"/><rect class="cls-2" x="101.51" y="75.94" width="26.92" height="7.82"/><path class="cls-2" d="M64.66,75.94h10.7c.24,0,.39.19.28.34l-5.35,7a.39.39,0,0,1-.56,0l-5.35-7C64.27,76.13,64.42,75.94,64.66,75.94Z"/></g></g></svg>