<svg xmlns="http://www.w3.org/2000/svg" viewBox="0 0 503 490"><defs><style>.cls-1{fill:#303033;}.cls-2{fill:#284fdd;}.cls-3{fill:#c7d8ff;}.cls-4{fill:none;stroke:#c7d8ff;stroke-miterlimit:10;stroke-width:2px;}</style></defs><title>Home Page - Design 1</title><g id="Layer_2" data-name="Layer 2"><g id="Home"><rect class="cls-1" x="84" y="71" width="419" height="419"/><rect class="cls-2" width="419" height="419"/><path class="cls-3" d="M199,351.26V367a1,1,0,0,1-1.63.69l-7.71-7.85a1,1,0,0,1,0-1.38l7.71-7.85A1,1,0,0,1,199,351.26Z"/><path class="cls-3" d="M179.32,351.26V367a1,1,0,0,0,1.63.69l7.71-7.85a1,1,0,0,0,0-1.38L181,350.57A1,1,0,0,0,179.32,351.26Z"/><path class="cls-3" d="M89.22,357.25a18.05,18.05,0,0,0,8.93-15.64,17.67,17.67,0,1,0-35.34,0,18.05,18.05,0,0,0,8.93,15.64"/><path class="cls-3" d="M89.22,357.25a17.36,17.36,0,0,1-17.48,0L64,370.94A1.37,1.37,0,0,0,65.15,373H95.82A1.37,1.37,0,0,0,97,370.94Z"/><path class="cls-4" d="M208.14,120.93c-.37-9.17-8.74-16.5-19-16.5-10.5,0-19,7.67-19,17.14a16.18,16.18,0,0,0,.14,2.09v42.91a16.06,16.06,0,0,0-.14,2.09c0,9.47,8.52,17.14,19,17.14s19-7.67,19-17.14v-.25h0V120.93Z"/><path class="cls-4" d="M221.09,223.42c-.62-10.36-14.69-18.65-32-18.65-17.66,0-32,8.67-32,19.37a12.34,12.34,0,0,0,.23,2.36V275a12.42,12.42,0,0,0-.23,2.36c0,10.7,14.32,19.38,32,19.38s32-8.68,32-19.38c0-.09,0-.19,0-.28h0V223.42Z"/><path class="cls-3" d="M200.37,264.26c-4.37,0-8.19,1.25-10.21,3.11V188.2c0-1.36-.46-2.46-1-2.46s-1,1.1-1,2.46v79.17c-2-1.86-5.84-3.11-10.22-3.11-6.48,0-11.74,2.75-11.74,6.14s5.26,6.13,11.74,6.13c5.3,0,9.77-1.83,11.24-4.34,1.47,2.51,5.94,4.34,11.23,4.34,6.49,0,11.74-2.74,11.74-6.13S206.86,264.26,200.37,264.26Z"/><path class="cls-3" d="M108.51,69.11H93.1a1,1,0,0,1-.68-1.66l7.71-7.85a.94.94,0,0,1,1.35,0l7.71,7.85A1,1,0,0,1,108.51,69.11Z"/><path class="cls-3" d="M108.51,49.11H93.1a1,1,0,0,0-.68,1.66l7.71,7.86a1,1,0,0,0,1.35,0l7.71-7.86A1,1,0,0,0,108.51,49.11Z"/><rect class="cls-3" y="58" width="188.93" height="2"/><rect class="cls-3" y="358" width="188.93" height="2"/><rect class="cls-3" x="188.44" y="58" width="1.96" height="47"/><rect class="cls-3" x="188.44" y="298" width="1.96" height="62"/><rect class="cls-3" x="38.28" width="1.96" height="58"/><rect class="cls-3" x="221.81" y="250" width="56.93" height="2"/><rect class="cls-3" x="294.81" y="191" width="2.45" height="25"/><rect class="cls-4" x="278.37" y="216" width="35.33" height="71" rx="6.83" ry="6.83"/><rect class="cls-3" x="284.63" y="167" width="23.56" height="24" rx="4.83" ry="4.83"/><rect class="cls-3" x="314.07" y="250" width="188.93" height="2"/><rect class="cls-3" x="394.55" y="252" width="1.96" height="47"/><rect class="cls-3" x="383.76" y="276" width="23.56" height="24" rx="1.99" ry="1.99"/><path class="cls-3" d="M454,261.11H438.58a1,1,0,0,1-.68-1.66l7.71-7.85a.94.94,0,0,1,1.35,0l7.71,7.85A1,1,0,0,1,454,261.11Z"/><path class="cls-3" d="M454,241.11H438.58a1,1,0,0,0-.68,1.66l7.71,7.86a1,1,0,0,0,1.35,0l7.71-7.86A1,1,0,0,0,454,241.11Z"/><rect class="cls-3" x="295.05" y="289" width="1.96" height="62"/><rect class="cls-3" x="256.16" y="351" width="82.44" height="3" rx="1.39" ry="1.39"/><rect class="cls-3" x="265" y="352" width="64.78" height="41"/><rect class="cls-3" x="296.59" y="393" width="1.59" height="97"/><path class="cls-3" d="M307.2,448.26V464a1,1,0,0,1-1.63.69l-7.71-7.85a1,1,0,0,1,0-1.38l7.71-7.85A1,1,0,0,1,307.2,448.26Z"/><path class="cls-3" d="M287.57,448.26V464a1,1,0,0,0,1.63.69l7.71-7.85a1,1,0,0,0,0-1.38l-7.71-7.85A1,1,0,0,0,287.57,448.26Z"/></g></g></svg>